<svg width="55" height="55" viewBox="0 0 55 55" fill="none" xmlns="http://www.w3.org/2000/svg">
<path d="M14.5712 3.47203C16.7899 1.74403 19.6912 0.789368 22.5712 0.789368C24.2965 0.789368 25.6912 1.38137 26.7499 2.3227C27.0379 2.57603 27.2912 2.8507 27.5179 3.13337C27.7419 2.8507 27.9979 2.57603 28.2832 2.3227C29.3392 1.38137 30.7365 0.789368 32.4592 0.789368C35.3445 0.789368 38.2459 1.74403 40.4619 3.47203C42.1872 4.81337 43.5392 6.6667 44.0699 8.90403C45.1899 9.0907 46.1872 9.66137 46.9925 10.416C48.2725 11.6187 49.1845 13.3574 49.7605 15.1467C50.3419 16.9627 50.6352 19.0027 50.5472 20.9627C50.5019 21.9654 50.3552 22.9894 50.0725 23.968L50.2485 24.048C51.2352 24.512 52.0352 25.24 52.6325 26.208C53.7659 28.0347 54.1659 30.664 54.1659 34.016C54.1659 37.8694 52.6939 40.4854 50.8005 42.1094C49.8144 42.9551 48.6601 43.5823 47.4139 43.9494C46.9609 46.0335 46.0307 47.9841 44.6965 49.648C42.7685 52.0587 39.7739 54.096 35.7445 54.096C32.5179 54.096 29.9765 52.3094 28.3445 50.6027C28.0551 50.2977 27.7793 49.98 27.5179 49.6507C27.2564 49.9791 26.9806 50.2959 26.6912 50.6C25.0565 52.312 22.5152 54.096 19.2885 54.096C15.2619 54.096 12.2645 52.0587 10.3365 49.648C9.00223 47.9842 8.07207 46.0335 7.61919 43.9494C6.37295 43.5823 5.21869 42.9551 4.23252 42.1094C2.33919 40.4827 0.867188 37.8694 0.867188 34.016C0.867188 30.664 1.26719 28.0347 2.40052 26.208C3.0004 25.2135 3.89519 24.4306 4.96052 23.968C4.68652 22.9881 4.52811 21.9795 4.48852 20.9627C4.40052 19.0027 4.69119 16.9627 5.27519 15.1467C5.84852 13.36 6.76052 11.6187 8.04319 10.416C8.8454 9.63411 9.86165 9.10789 10.9632 8.90403C11.4939 6.66403 12.8459 4.81337 14.5712 3.47203ZM17.0272 6.6267C15.5739 7.76004 14.7205 9.26937 14.7205 11.008C14.7203 11.3248 14.6448 11.6369 14.5003 11.9188C14.3559 12.2007 14.1465 12.4442 13.8895 12.6293C13.6325 12.8144 13.3352 12.9359 13.0221 12.9836C12.709 13.0314 12.389 13.0041 12.0885 12.904C11.7205 12.7814 11.3365 12.8107 10.7792 13.3334C10.1632 13.912 9.53385 14.96 9.08319 16.368C8.6288 17.7941 8.42578 19.2884 8.48319 20.784C8.54985 22.2667 8.90185 23.4987 9.45919 24.3307C9.55096 24.4685 9.6253 24.6172 9.68052 24.7734H12.5659C14.4853 24.7736 16.3336 25.5002 17.7394 26.8071C19.1452 28.114 20.0044 29.9044 20.1445 31.8187C21.2933 32.2771 22.247 33.1205 22.8425 34.2045C23.438 35.2885 23.6382 36.5458 23.4088 37.7612C23.1795 38.9766 22.5348 40.0745 21.5852 40.867C20.6357 41.6595 19.4402 42.0973 18.2034 42.1055C16.9666 42.1137 15.7654 41.6918 14.8053 40.912C13.8453 40.1321 13.1862 39.0429 12.9407 37.8307C12.6953 36.6185 12.8788 35.3586 13.4598 34.2668C14.0408 33.1749 14.9833 32.3189 16.1259 31.8454C15.9993 30.9916 15.5702 30.2117 14.9167 29.6478C14.2633 29.084 13.429 28.7736 12.5659 28.7734H5.63252C5.6103 28.7738 5.58808 28.7738 5.56585 28.7734C5.16585 29.7014 4.86719 31.304 4.86719 34.016C4.86719 36.7387 5.85919 38.232 6.84052 39.0747C7.91252 39.9947 9.09385 40.2347 9.43519 40.2347C9.96562 40.2347 10.4743 40.4454 10.8494 40.8205C11.2245 41.1956 11.4352 41.7043 11.4352 42.2347C11.4352 43.3547 12.0539 45.3894 13.4619 47.1494C14.8192 48.848 16.7499 50.096 19.2885 50.096C20.9872 50.096 22.5525 49.1414 23.7952 47.84C24.3979 47.2054 24.8672 46.5467 25.1765 46.0134C25.2945 45.814 25.3979 45.6063 25.4859 45.392L25.4992 45.3547V38.808V38.7734V20.1067H23.1125C22.6484 21.2541 21.7996 22.2043 20.7117 22.7945C19.6238 23.3848 18.3645 23.5782 17.1496 23.3418C15.9347 23.1054 14.8399 22.4538 14.0527 21.4987C13.2655 20.5436 12.8351 19.3444 12.8351 18.1067C12.8351 16.869 13.2655 15.6698 14.0527 14.7147C14.8399 13.7596 15.9347 13.108 17.1496 12.8716C18.3645 12.6352 19.6238 12.8286 20.7117 13.4189C21.7996 14.0091 22.6484 14.9593 23.1125 16.1067H25.4992V9.3387L25.4939 9.1867C25.4568 8.36348 25.2949 7.55067 25.0139 6.77603C24.7739 6.14137 24.4619 5.64003 24.0912 5.30937C23.7632 5.01603 23.3125 4.78937 22.5712 4.78937C20.5312 4.78937 18.5045 5.47737 17.0272 6.62937V6.6267ZM29.5339 40.7734V45.3547L29.5472 45.392C29.6005 45.5334 29.7019 45.744 29.8565 46.0134C30.1659 46.5467 30.6352 47.2054 31.2379 47.84C32.4805 49.1414 34.0459 50.096 35.7445 50.096C38.2859 50.096 40.2139 48.848 41.5712 47.1494C42.9792 45.3894 43.5979 43.352 43.5979 42.2347C43.5979 41.7043 43.8086 41.1956 44.1836 40.8205C44.5587 40.4454 45.0674 40.2347 45.5979 40.2347C45.9392 40.2347 47.1179 39.9947 48.1952 39.0747C49.1739 38.232 50.1659 36.7387 50.1659 34.016C50.1659 30.7947 49.7445 29.136 49.2352 28.3174C49.0758 28.0342 48.8339 27.8064 48.5419 27.664C48.2699 27.536 47.8672 27.44 47.2405 27.44C46.8783 27.4405 46.5228 27.3426 46.2119 27.1567C45.901 26.9709 45.6464 26.7041 45.4753 26.3849C45.3041 26.0657 45.2229 25.7059 45.2403 25.3442C45.2577 24.9824 45.373 24.6321 45.5739 24.3307C46.1312 23.496 46.4832 22.2667 46.5499 20.784C46.6072 19.2884 46.4042 17.7942 45.9499 16.368C45.4965 14.96 44.8725 13.9147 44.2539 13.3334C43.6992 12.8107 43.3125 12.7814 42.9472 12.904C42.6465 13.0046 42.3263 13.0323 42.0128 12.9848C41.6993 12.9373 41.4016 12.8159 41.1443 12.6308C40.887 12.4456 40.6773 12.2018 40.5327 11.9197C40.3881 11.6376 40.3126 11.3251 40.3125 11.008C40.3125 9.26937 39.4592 7.76004 38.0059 6.6267C36.5285 5.47737 34.5045 4.7867 32.4592 4.7867C31.7205 4.7867 31.2699 5.0187 30.9419 5.30937C30.5712 5.64003 30.2619 6.14137 30.0219 6.77603C29.7408 7.55067 29.5789 8.36348 29.5419 9.1867C29.5385 9.23733 29.5358 9.288 29.5339 9.3387V36.7734H31.2325C32.1873 36.7734 33.103 36.3941 33.7781 35.719C34.4532 35.0438 34.8325 34.1281 34.8325 33.1734V28.3867C33.6851 27.9226 32.7349 27.0738 32.1447 25.9859C31.5545 24.898 31.361 23.6387 31.5974 22.4238C31.8338 21.2089 32.4854 20.114 33.4405 19.3269C34.3957 18.5397 35.5948 18.1092 36.8325 18.1092C38.0702 18.1092 39.2694 18.5397 40.2245 19.3269C41.1796 20.114 41.8312 21.2089 42.0676 22.4238C42.3041 23.6387 42.1106 24.898 41.5204 25.9859C40.9301 27.0738 39.9799 27.9226 38.8325 28.3867V33.1734C38.8325 34.1714 38.6359 35.1597 38.254 36.0818C37.8721 37.0038 37.3123 37.8417 36.6065 38.5474C35.9008 39.2531 35.063 39.8129 34.1409 40.1949C33.2188 40.5768 32.2306 40.7734 31.2325 40.7734H29.5339ZM18.1659 16.7734C17.8122 16.7734 17.4731 16.9138 17.223 17.1639C16.973 17.4139 16.8325 17.7531 16.8325 18.1067C16.8325 18.4603 16.973 18.7995 17.223 19.0495C17.4731 19.2996 17.8122 19.44 18.1659 19.44C18.5195 19.44 18.8586 19.2996 19.1087 19.0495C19.3587 18.7995 19.4992 18.4603 19.4992 18.1067C19.4992 17.7531 19.3587 17.4139 19.1087 17.1639C18.8586 16.9138 18.5195 16.7734 18.1659 16.7734ZM16.8325 36.7734C16.8325 37.127 16.973 37.4661 17.223 37.7162C17.4731 37.9662 17.8122 38.1067 18.1659 38.1067C18.5195 38.1067 18.8586 37.9662 19.1087 37.7162C19.3587 37.4661 19.4992 37.127 19.4992 36.7734C19.4992 36.4197 19.3587 36.0806 19.1087 35.8306C18.8586 35.5805 18.5195 35.44 18.1659 35.44C17.8122 35.44 17.4731 35.5805 17.223 35.8306C16.973 36.0806 16.8325 36.4197 16.8325 36.7734ZM35.4992 23.44C35.4992 23.7937 35.6397 24.1328 35.8897 24.3828C36.1398 24.6329 36.4789 24.7734 36.8325 24.7734C37.1861 24.7734 37.5253 24.6329 37.7753 24.3828C38.0254 24.1328 38.1659 23.7937 38.1659 23.44C38.1659 23.0864 38.0254 22.7473 37.7753 22.4972C37.5253 22.2472 37.1861 22.1067 36.8325 22.1067C36.4789 22.1067 36.1398 22.2472 35.8897 22.4972C35.6397 22.7473 35.4992 23.0864 35.4992 23.44Z" fill="white"/>
</svg>
