<svg width="65" height="53" viewBox="0 0 65 53" fill="none" xmlns="http://www.w3.org/2000/svg">
<path d="M26.5 0.440063C24.9087 0.440063 23.3826 1.0722 22.2574 2.19742C21.1321 3.32264 20.5 4.84876 20.5 6.44006V8.44006H6.5C4.9087 8.44006 3.38258 9.0722 2.25736 10.1974C1.13214 11.3226 0.5 12.8488 0.5 14.4401L0.5 46.4401C0.5 48.0314 1.13214 49.5575 2.25736 50.6827C3.38258 51.8079 4.9087 52.4401 6.5 52.4401H58.5C60.0913 52.4401 61.6174 51.8079 62.7426 50.6827C63.8679 49.5575 64.5 48.0314 64.5 46.4401V14.4401C64.5 12.8488 63.8679 11.3226 62.7426 10.1974C61.6174 9.0722 60.0913 8.44006 58.5 8.44006H44.5V6.44006C44.5 4.84876 43.8679 3.32264 42.7426 2.19742C41.6174 1.0722 40.0913 0.440063 38.5 0.440063H26.5ZM26.5 4.44006H38.5C39.0304 4.44006 39.5391 4.65078 39.9142 5.02585C40.2893 5.40092 40.5 5.90963 40.5 6.44006V8.44006H24.5V6.44006C24.5 5.90963 24.7107 5.40092 25.0858 5.02585C25.4609 4.65078 25.9696 4.44006 26.5 4.44006ZM34.044 32.0961L60.5 25.0441V46.4401C60.5 46.9705 60.2893 47.4792 59.9142 47.8543C59.5391 48.2294 59.0304 48.4401 58.5 48.4401H6.5C5.96957 48.4401 5.46086 48.2294 5.08579 47.8543C4.71071 47.4792 4.5 46.9705 4.5 46.4401V25.0401L30.956 32.0961C31.9677 32.3655 33.0323 32.3655 34.044 32.0961ZM6.5 12.4401H58.5C59.0304 12.4401 59.5391 12.6508 59.9142 13.0259C60.2893 13.4009 60.5 13.9096 60.5 14.4401V20.9041L33.016 28.2321C32.6779 28.3223 32.3221 28.3223 31.984 28.2321L4.5 20.9041V14.4401C4.5 13.9096 4.71071 13.4009 5.08579 13.0259C5.46086 12.6508 5.96957 12.4401 6.5 12.4401Z" fill="white"/>
</svg>
