<svg width="57" height="57" viewBox="0 0 57 57" fill="none" xmlns="http://www.w3.org/2000/svg">
<path fill-rule="evenodd" clip-rule="evenodd" d="M55.5906 10.3799L52.4706 9.64395L44.0386 18.0279L39.2626 13.1639L47.4866 4.53594L46.7666 1.36795C45.0288 0.786546 43.2111 0.478871 41.3786 0.455945C39.3797 0.425206 37.3958 0.806458 35.5506 1.57595C33.7691 2.38239 32.1586 3.52298 30.8066 4.93595C29.3016 6.36159 28.1097 8.08477 27.3066 9.99594C25.7605 13.7995 25.7605 18.0564 27.3066 21.8599C18.9676 30.0639 10.7362 38.3766 2.61464 46.7959C1.77464 47.8959 1.37464 49.2679 1.47864 50.6479C1.56061 52.1322 2.22811 53.5233 3.33464 54.5159C3.83064 55.0559 4.42264 55.5039 5.08264 55.8279C5.76264 56.1279 6.49465 56.2999 7.23464 56.3359C8.49864 56.3119 9.71065 55.8319 10.6506 54.9879C16.8426 49.1599 28.7066 37.1879 35.4466 30.1719C37.2746 30.9479 39.2386 31.3479 41.2226 31.3439C43.2198 31.3424 45.1963 30.9405 47.0355 30.1621C48.8747 29.3837 50.5392 28.2445 51.9306 26.8119C54.7888 23.897 56.3852 19.9744 56.3746 15.8919C56.4209 14.0238 56.1559 12.1611 55.5906 10.3799ZM8.23065 52.1519C8.07668 52.2887 7.8911 52.3849 7.69065 52.4319C7.49344 52.4661 7.29185 52.4661 7.09464 52.4319C6.88788 52.4004 6.69095 52.3225 6.51865 52.2039C6.33375 52.0957 6.1774 51.9449 6.06264 51.7639C5.50265 51.1919 4.97864 50.1039 5.50264 49.4919C10.9826 43.6639 22.2666 32.2719 29.3226 25.3079C29.7226 25.8359 30.1626 26.3399 30.6346 26.8119C31.1066 27.3039 31.6146 27.7599 32.1546 28.1759C25.3306 35.1759 14.2026 46.4319 8.23464 52.1519H8.23065ZM52.7026 15.8919C52.7106 18.9519 51.5186 21.8919 49.3746 24.0839C47.2351 26.1827 44.3577 27.3584 41.3606 27.3584C38.3636 27.3584 35.4861 26.1827 33.3466 24.0839C31.7786 22.4475 30.7074 20.3995 30.2578 18.1781C29.8081 15.9568 29.9984 13.6534 30.8066 11.5359C31.3446 10.0949 32.1791 8.78277 33.256 7.68446C34.333 6.58616 35.6284 5.72611 37.0586 5.15995C38.4166 4.59158 39.8745 4.30054 41.3466 4.30395H42.3626L35.0946 11.7959V14.5799L42.6746 22.1239H45.3146L52.7026 14.8599V15.8919ZM9.45864 23.1919H15.5826L18.4026 26.0599L21.1146 23.3639L18.4546 20.6519V20.4799L18.6826 13.8839L17.8026 12.1359L6.36265 4.60795L3.99864 4.87195L0.674645 8.26795L0.410645 10.6639L7.76264 22.3359L9.45864 23.1959V23.1919ZM5.67865 8.66395L14.9346 14.7599L14.7786 19.2519H10.4746L4.50665 9.80395L5.67865 8.66395ZM34.0986 36.5039L36.7946 33.8119L49.2186 46.5519C50.2651 47.6518 50.8487 49.1118 50.8487 50.6299C50.8487 52.1481 50.2651 53.6081 49.2186 54.7079C48.4318 55.5158 47.4199 56.068 46.3148 56.2927C45.2097 56.5175 44.0625 56.4043 43.0226 55.9679C42.359 55.6736 41.7637 55.2445 41.2746 54.7079L28.7066 41.8959L31.4226 39.1839L43.9506 51.9599C44.1191 52.1458 44.3287 52.2896 44.5626 52.3799C45.023 52.5669 45.5382 52.5669 45.9986 52.3799C46.2325 52.2895 46.4421 52.1456 46.6106 51.9599C46.7857 51.7865 46.9221 51.5779 47.0106 51.3479C47.1024 51.1132 47.1512 50.8639 47.1546 50.6119C47.1506 50.3604 47.1033 50.1114 47.0146 49.8759C46.926 49.646 46.7897 49.4374 46.6146 49.2639L34.0986 36.5039Z" fill="white"/>
</svg>
